<svg width="32" height="32" viewBox="0 0 32 32" fill="none" xmlns="http://www.w3.org/2000/svg">
<rect width="32" height="32" rx="8" fill="#EEEEEE"/>
<path d="M27.9716 19.0589L25.9221 10.6265C25.7794 9.69833 24.8913 8 22.5127 8C21.7459 8 21.7459 9.18488 22.5127 9.18488C24.4354 9.18488 24.7209 10.6581 24.7486 10.82L26.6356 18.6007H25.8071C25.6357 17.2432 24.8525 15.9889 23.706 15.2357C23.2656 15.4204 23.1273 15.8085 23.0995 16.2468C24.0636 16.9055 24.6693 18.0325 24.6852 19.1971C24.6619 21.1316 23.0732 22.8028 21.1034 22.8028C19.1294 22.8028 17.5452 21.1566 17.5216 19.1971C17.5278 18.6492 17.6565 18.1095 17.8982 17.6173C17.4972 17.5892 17.1599 17.2279 17.1609 16.8274C17.1615 16.7556 17.1346 16.6864 17.0855 16.6338C16.702 17.2301 16.4593 17.9053 16.3759 18.6086H15.6386C15.3793 16.2277 13.3001 14.3803 10.9091 14.3803C8.51807 14.3803 6.43889 16.2277 6.17962 18.6086H5.359L7.24999 10.82C7.27378 10.6581 7.57111 9.18488 9.48588 9.18488C10.2527 9.18488 10.2527 8 9.48588 8C7.10728 8 6.21926 9.69833 6.07655 10.6265L4.02301 19.0589C3.91493 19.424 4.21078 19.7958 4.58992 19.7777H6.17565C6.20791 20.022 6.25826 20.2636 6.3263 20.5005C6.35134 20.4572 6.36498 20.4083 6.36594 20.3583C6.36594 19.8587 6.8627 19.4586 7.3491 19.596C7.08434 17.4869 8.78811 15.5627 10.9012 15.5627C12.8777 15.5627 14.4705 17.2164 14.481 19.1813C14.4681 21.1178 12.8457 22.7232 10.913 22.7359C10.1402 22.7465 9.38472 22.5067 8.76041 22.0527C8.61735 22.1765 8.43452 22.2451 8.24504 22.2462C8.08871 22.2483 7.95167 22.3867 7.95168 22.5424C7.95061 22.6529 7.9263 22.7618 7.88032 22.8623C8.72845 23.5626 9.79565 23.9455 10.8972 23.9445C13.2683 23.9547 15.3446 22.1463 15.6386 19.7895H16.3601C16.6276 22.1628 18.7032 24 21.0875 24C23.4719 24 25.5474 22.1628 25.815 19.7895H27.4008C27.7898 19.8176 28.0952 19.4303 27.9716 19.0589Z" fill="black"/>
</svg>
