<?xml version="1.0" encoding="utf-8"?><svg viewBox="0 0 298 345" xmlns="http://www.w3.org/2000/svg" xmlns:xlink="http://www.w3.org/1999/xlink"><style>:root>svg{display:none}:root>svg:target{display:block}</style><svg viewBox="0 0 43 47" id="android" xmlns="http://www.w3.org/2000/svg"><path d="M34.886 14.062H8.114v19.133a3.553 3.553 0 00.96 2.468 3.697 3.697 0 002.422 1.159v7.453c.044.737.374 1.43.922 1.936a2.986 2.986 0 002.026.789c.753 0 1.478-.282 2.026-.789a2.869 2.869 0 00.922-1.936v-7.433h8.236v7.433c.045.737.375 1.43.922 1.936a2.985 2.985 0 002.026.789c.754 0 1.478-.282 2.026-.789a2.869 2.869 0 00.922-1.936v-7.453a3.707 3.707 0 002.426-1.158c.63-.673.975-1.555.967-2.468V14.402l-.03-.34zM2.953 15.745c.78 0 1.53.304 2.081.845.552.54.862 1.275.862 2.04v12.402c.001.38-.074.756-.22 1.107a2.88 2.88 0 01-.638.94 2.947 2.947 0 01-.956.627 2.995 2.995 0 01-3.217-.627A2.866 2.866 0 010 31.032V18.63c0-.38.076-.756.225-1.107a2.9 2.9 0 011.599-1.562 2.995 2.995 0 011.13-.216zm37.104 0c.78 0 1.53.304 2.081.845.552.54.862 1.275.862 2.04v12.402a2.845 2.845 0 01-.858 2.047 2.947 2.947 0 01-.956.627 2.994 2.994 0 01-3.217-.627 2.867 2.867 0 01-.865-2.047V18.63c0-.38.076-.756.225-1.107.148-.35.366-.669.64-.937.275-.268.6-.48.959-.625a2.995 2.995 0 011.129-.216zM8.175 12.058h26.568a10.404 10.404 0 00-3.26-7.293L34.049.498a.307.307 0 00-.122-.461.322.322 0 00-.42.11l-2.42 4.157A16.708 16.708 0 0021.458.898a16.977 16.977 0 00-9.575 3.406L9.504.187a.325.325 0 00-.184-.16.333.333 0 00-.246.01.315.315 0 00-.112.42l2.493 4.238a10.443 10.443 0 00-3.28 7.363zm17.699-5.21c0-.398.161-.78.449-1.062a1.55 1.55 0 012.167 0c.288.282.45.664.45 1.063 0 .398-.162.78-.45 1.062-.287.282-.677.44-1.084.44-.406 0-.796-.158-1.083-.44a1.488 1.488 0 01-.45-1.062zm-11.384 0c0-.398.162-.78.449-1.062a1.554 1.554 0 012.168 0c.287.282.449.664.449 1.063 0 .398-.162.78-.45 1.062-.287.282-.677.44-1.083.44-.407 0-.797-.158-1.084-.44a1.488 1.488 0 01-.449-1.062z" fill="#A4C639"/></svg><svg viewBox="0 0 47 56" id="apple" xmlns="http://www.w3.org/2000/svg"><path d="M39.245 29.74a12.09 12.09 0 002.127 6.787A12.668 12.668 0 0047 41.063a29.794 29.794 0 01-4 7.96c-2.401 3.413-4.905 6.816-8.844 6.904-3.938.09-5.088-2.219-9.526-2.219-4.437 0-5.8 2.15-9.465 2.288-3.663.139-6.686-3.718-9.088-7.111-4.956-6.905-8.752-19.639-3.664-28.2a13.925 13.925 0 015.024-5.037 14.489 14.489 0 016.935-1.977c3.724-.069 7.246 2.427 9.526 2.427 2.28 0 6.564-3.009 11.062-2.565a13.85 13.85 0 015.954 1.576 13.387 13.387 0 014.61 3.977c-.275.168-6.31 3.571-6.249 10.653h-.03zM31.978 8.936C34.16 6.46 35.238 3.247 34.981 0c-3.305.302-6.364 1.82-8.55 4.241-1.862 2.092-3.5 5.445-3.053 8.66 3.247.247 6.555-1.597 8.57-3.945" fill="#fff"/></svg><svg viewBox="0 0 32 32" id="contrast" xmlns="http://www.w3.org/2000/svg"><path d="M16 4a12 12 0 110 24 12 12 0 010-24zm0-4a16 16 0 100 32 16 16 0 000-32zm0 24.29a8.52 8.52 0 000-17" fill="#283645" opacity=".3"/></svg><svg viewBox="0 0 32 32" id="contrast-desktop" xmlns="http://www.w3.org/2000/svg"><path d="M16 4a12 12 0 110 24 12 12 0 010-24zm0-4a16 16 0 100 32 16 16 0 000-32zm0 24.29a8.52 8.52 0 000-17" fill="#D22856"/></svg><svg viewBox="0 0 16 16" id="contrast-tablet" xmlns="http://www.w3.org/2000/svg"><path d="M8 2a6 6 0 110 12A6 6 0 018 2zm0-2a8 8 0 100 16A8 8 0 008 0zm0 12.145a4.26 4.26 0 000-8.5" fill="#D22856"/></svg><svg viewBox="0 0 44 44" id="crop" xmlns="http://www.w3.org/2000/svg"><path d="M32 28h4V12a4 4 0 00-4-4H16v4h16v16zm-20 4V0H8v8H0v4h8v20a4 4 0 004 4h20v8h4v-8h8v-4H12z" fill="#D22856"/></svg><svg viewBox="0 0 22 22" id="crop-tablet" xmlns="http://www.w3.org/2000/svg"><path d="M16 14h2V6a2 2 0 00-2-2H8v2h8v8zM6 16V0H4v4H0v2h4v10a2 2 0 002 2h10v4h2v-4h4v-2H6z" fill="#D22856"/></svg><svg viewBox="0 0 27 27" id="cross" xmlns="http://www.w3.org/2000/svg"><path d="M15.644 13.507l10.91-10.92a1.503 1.503 0 000-2.14 1.524 1.524 0 00-2.14 0l-10.909 10.92L2.586.447a1.504 1.504 0 00-2.14 0 1.524 1.524 0 000 2.14l10.92 10.92-10.92 10.91a1.503 1.503 0 000 2.139 1.514 1.514 0 002.14 0l10.919-10.91 10.909 10.91a1.514 1.514 0 002.14-2.14l-10.91-10.91z" fill="#F25B26"/></svg><svg viewBox="0 0 9 18" id="facebook" xmlns="http://www.w3.org/2000/svg"><path d="M6.509 3.193H9V0H6.02C2.762.171 1.6 2.271 2.077 5.816H0v3.336h2.076V18h3.945V9.152h2.958V5.816H6.01c-.02-.998-.041-2.29.499-2.623z" fill="#D22856"/></svg><svg viewBox="0 0 48 43" id="fill" xmlns="http://www.w3.org/2000/svg"><path d="M33.12 17.88L15.24 0l-2.83 2.83 4.76 4.76L6.88 17.88a3 3 0 000 4.24l11 11a3 3 0 004.24 0l11-11a3 3 0 000-4.24zM10.41 20L20 10.42 29.59 20H10.41zM38 23s-4 4.33-4 7a4 4 0 108 0c0-2.67-4-7-4-7zm10 17H0v3h48v-3z" fill="#283645" opacity=".3"/></svg><svg viewBox="0 0 48 43" id="fill-desktop" xmlns="http://www.w3.org/2000/svg"><path d="M33.12 17.88L15.24 0l-2.83 2.83 4.76 4.76L6.88 17.88a3 3 0 000 4.24l11 11a3 3 0 004.24 0l11-11a3 3 0 000-4.24zM10.41 20L20 10.42 29.59 20H10.41zM38 23s-4 4.33-4 7a4 4 0 108 0c0-2.67-4-7-4-7zm10 17H0v3h48v-3z" fill="#D22856"/></svg><svg viewBox="0 0 24 22" id="fill-tablet" xmlns="http://www.w3.org/2000/svg"><path d="M16.56 9.148L7.62 0 6.205 1.448l2.38 2.435L3.44 9.148a1.558 1.558 0 000 2.169l5.5 5.628a1.48 1.48 0 002.12 0l5.5-5.628a1.558 1.558 0 000-2.169zM5.205 10.233L10 5.33l4.795 4.902h-9.59zM19 11.767s-2 2.216-2 3.582c0 .543.21 1.063.586 1.447.375.384.884.6 1.414.6.53 0 1.04-.216 1.414-.6A2.07 2.07 0 0021 15.349c0-1.366-2-3.582-2-3.582zm5 8.698H0V22h24v-1.535z" fill="#D22856"/></svg><svg viewBox="0 0 13 12" id="heart" xmlns="http://www.w3.org/2000/svg"><path d="M6.469 12a.782.782 0 01-.58-.25C1.958 7.42 1.036 6.44.86 6.17A3.765 3.765 0 010 3.8a3.723 3.723 0 01.63-2.045A3.921 3.921 0 012.3.355a4.09 4.09 0 012.187-.32A4.031 4.031 0 016.51.9 4.08 4.08 0 019.07 0a4.013 4.013 0 012.78 1.117A3.733 3.733 0 0113 3.8a3.409 3.409 0 01-.923 2.38l-5.038 5.56a.757.757 0 01-.57.25V12zM2.073 5.28c.218.26 2.56 2.84 4.396 4.86l4.478-4.94a1.96 1.96 0 00.539-1.4c0-.618-.254-1.21-.707-1.648A2.461 2.461 0 009.07 1.47a2.61 2.61 0 00-1.097.252c-.341.163-.64.398-.873.688a.844.844 0 01-.612.28.757.757 0 01-.332-.082.729.729 0 01-.258-.218 2.43 2.43 0 00-.868-.682 2.49 2.49 0 00-2.372.132 2.369 2.369 0 00-.882.968 2.267 2.267 0 00.296 2.462v.01z" fill="#D22856"/></svg><svg viewBox="0 0 27 34" id="html-academy" xmlns="http://www.w3.org/2000/svg"><path d="M13.643.016L13.5 0 0 1.407v24.606L13.5 34 27 26.013V1.407L13.643.016zm11.591 25L13.5 31.956 1.766 25.015V14.93l11.685 6.916.02 1.253-8.017-4.743-.011 1.225 8.046 4.809.02 1.286-8.045-4.758-.01 1.226L13.5 26.95l8.124-4.833V16.91l3.62-2.15-.01 10.256zm0-11.564l-3.22 1.88-1.482.875-7.065-4.187-.011 1.225 6.04 3.573-.053.031-.13.076-.86.492-4.986-2.948-.011 1.225 3.936 2.328-.933.61-.021.012-2.971-1.742-.011 1.225 1.947 1.135-1.988 1.186-11.618-6.872 11.638-6.958 11.8 6.834zm0-1.225L13.44 5.31 1.766 12.22V2.99L13.5 1.764 25.234 2.99v9.237z" fill="#D22856"/></svg><svg viewBox="0 0 60 60" id="htmlacademy" xmlns="http://www.w3.org/2000/svg"><path fill="#2E368F" d="M30.2 5H30L10.3 7.1v36.2L30 55l19.7-11.7V7.1L30.2 5zm17 36.8L30 52 12.8 41.8V27l17.1 10.2V39l-11.7-7v1.8L30 40.9v1.9l-11.8-7v1.8l11.8 7 11.9-7.1v-7.6l5.3-3.2v15.1zm-.1-17l-4.7 2.8-2.2 1.3-10.3-6.1v1.8l8.8 5.3h-.1l-.2.1-1.3.7-7.3-4.3v1.8l5.8 3.4-1.4.9-4.3-2.6v1.8l2.9 1.7-2.9 1.7-17-10.1 17-10.2 17.2 10zm.1-1.8L29.9 12.8 12.8 23V9.4L30 7.6l17.2 1.8V23z"/></svg><svg viewBox="0 0 18 13" id="mail" xmlns="http://www.w3.org/2000/svg"><path d="M14.91 1.68c1.2-.928.91-1.68-.65-1.68H3.73c-1.56 0-1.85.761-.66 1.68l3.75 2.898c.621.45 1.387.696 2.175.696.788 0 1.554-.245 2.175-.696l3.74-2.897zm-3 4.82L9.7 8.246a1.13 1.13 0 01-.26.111l-.1.047c-.109.042-.223.07-.34.083l-.33-.056-.12-.074a1.183 1.183 0 01-.24-.13L6.08 6.5l-3.9-2.971C1 2.6 0 3.027 0 4.476v5.859c-.003.347.069.692.21 1.014.14.322.348.615.61.863.263.247.576.444.92.58A3.04 3.04 0 002.83 13h12.32c.376 0 .748-.07 1.095-.203.347-.134.662-.331.927-.579.265-.247.475-.541.617-.865.142-.323.214-.669.211-1.018v-5.86c0-1.448-1-1.856-2.18-.928L11.91 6.5z" fill="#D22856"/></svg><svg viewBox="0 0 44 41" id="microsoft" xmlns="http://www.w3.org/2000/svg"><path d="M20.908 19.524H0V0h20.908v19.524z" fill="#F05423"/><path d="M44 19.524H23.092V0H44v19.524z" fill="#84C441"/><path d="M20.908 41H0V21.476h20.908V41z" fill="#2DABE2"/><path d="M44 41H23.092V21.476H44V41z" fill="#F9BC15"/></svg><svg viewBox="0 0 50 24" id="nav-close" xmlns="http://www.w3.org/2000/svg"><path d="M47.755 0L26 21.755 28.245 24 50 2.245 47.755 0zm-19.51 0L26 2.245 47.755 24 50 21.755 28.245 0z" fill="#fff"/></svg><svg viewBox="0 0 50 24" id="nav-open" xmlns="http://www.w3.org/2000/svg"><path d="M1 0C.5 0 0 .5 0 1v2c0 .5.5 1 1 1h48c.5 0 1-.5 1-1V1c0-.5-.5-1-1-1H1zm0 10c-.5 0-1 .5-1 1v2c0 .5.5 1 1 1h48c.5 0 1-.5 1-1v-2c0-.5-.5-1-1-1H1zm0 10c-.5 0-1 .5-1 1v2c0 .5.5 1 1 1h48c.5 0 1-.5 1-1v-2c0-.5-.5-1-1-1H1z" fill="#fff"/></svg><svg viewBox="0 0 22 41" id="next-arrow" xmlns="http://www.w3.org/2000/svg"><path opacity=".3" d="M19.959 20.497L.252 39.585A.822.822 0 000 40.17a.801.801 0 00.252.585A.86.86 0 00.86 41a.88.88 0 00.608-.245l20.28-19.664a.834.834 0 00.252-.59.811.811 0 00-.253-.59L1.468.239A.894.894 0 00.855 0a.878.878 0 00-.473.143.838.838 0 00-.313.372.81.81 0 00.183.902l19.707 19.08z" fill="#283645"/></svg><svg viewBox="0 0 20 19" id="phone" xmlns="http://www.w3.org/2000/svg"><path d="M10.04 0C6.465 0 2.908.608 1.583 1.815a6.392 6.392 0 00-1.58 3.892c-.003.055-.003.11 0 .164 0 .21.088.412.245.56a.86.86 0 00.591.232l3.24-.25h.082a.865.865 0 00.581-.237.78.78 0 00.176-.256.746.746 0 00.059-.3V4.046a.83.83 0 01.067-.335.867.867 0 01.198-.286.922.922 0 01.299-.19.961.961 0 01.353-.068h8.153c.246 0 .482.093.656.258a.856.856 0 01.271.621v1.555a.77.77 0 00.238.553c.152.148.36.234.578.239h.091l3.282.251a.876.876 0 00.59-.232.79.79 0 00.182-.257.756.756 0 00.064-.303 1.45 1.45 0 000-.164 6.455 6.455 0 00-1.56-3.863C17.195.608 13.618 0 10.041 0zm0 10.304c-.33 0-.653.093-.928.267a1.6 1.6 0 00-.615.71c-.127.29-.16.608-.095.916.064.307.223.59.457.81.234.222.531.373.856.434.324.061.66.03.965-.09.306-.12.567-.323.75-.583a1.526 1.526 0 00-.204-2.003 1.669 1.669 0 00-.544-.343 1.742 1.742 0 00-.641-.118zM8.788 6.76v-.966a.94.94 0 00-.298-.683 1.048 1.048 0 00-.72-.283c-.271 0-.53.102-.722.283a.94.94 0 00-.298.683v.966l-5.728 5.688a1.932 1.932 0 00-.471.647 1.843 1.843 0 00-.16.772v1.584c0 .421.175.825.488 1.123a1.73 1.73 0 001.183.47h.418v.966a.97.97 0 00.306.7c.097.092.212.165.339.215a1.096 1.096 0 001.138-.215.988.988 0 00.227-.321.945.945 0 00.079-.379v-.966h10.905v.966c0 .263.11.514.306.7.196.186.461.29.738.29.277 0 .543-.104.739-.29a.964.964 0 00.306-.7v-.966h.418c.22 0 .438-.04.642-.121.203-.08.388-.198.543-.346a1.58 1.58 0 00.362-.517c.083-.193.125-.4.124-.609v-1.584a1.844 1.844 0 00-.155-.77 1.933 1.933 0 00-.466-.65L13.382 6.76v-.966a.964.964 0 00-.305-.7 1.075 1.075 0 00-.74-.29c-.276 0-.542.105-.738.29a.964.964 0 00-.306.7v.966H8.787zm1.254 1.931c.66 0 1.307.186 1.857.534.55.348.978.843 1.231 1.422.253.578.32 1.215.19 1.83a3.12 3.12 0 01-.915 1.621 3.403 3.403 0 01-1.711.867c-.649.123-1.32.06-1.931-.18a3.312 3.312 0 01-1.5-1.167 3.05 3.05 0 01-.564-1.76c0-.84.352-1.645.98-2.239a3.439 3.439 0 012.363-.928z" fill="#D22856"/></svg><svg viewBox="0 0 22 41" id="prev-arrow" xmlns="http://www.w3.org/2000/svg"><path opacity=".3" d="M2.041 20.503L21.748 1.415A.821.821 0 0022 .83a.801.801 0 00-.252-.585A.86.86 0 0021.14 0a.882.882 0 00-.608.245L.252 19.909a.832.832 0 00-.252.59.81.81 0 00.253.59l20.279 19.673a.894.894 0 00.613.238.877.877 0 00.473-.143.838.838 0 00.313-.372.809.809 0 00-.183-.902L2.041 20.503z" fill="#283645"/></svg><svg viewBox="0 0 79 63" id="quotes" xmlns="http://www.w3.org/2000/svg"><path d="M35.147 6.973L30.839 0C28.389 1.481 0 12.059 0 39.13 0 46.27.341 63 18.98 63c11.236 0 13.998-10.153 13.998-13.422 0-21.727-21.47-13.994-21.47-13.994 0-17.807 19.883-26.518 23.639-28.611zm43.853 0L74.732 0c-2.43 1.481-30.849 12.059-30.849 39.13 0 7.14.342 23.87 18.99 23.87C74.1 63 76.86 52.847 76.86 49.578c0-21.727-21.47-13.994-21.47-13.994C55.391 17.777 75.315 9.066 79 6.973z" fill="#EFEFEF"/></svg><svg viewBox="0 0 31 21" id="tick" xmlns="http://www.w3.org/2000/svg"><path d="M30.556.43a1.54 1.54 0 00-.499-.318 1.607 1.607 0 00-1.179 0 1.54 1.54 0 00-.499.318L10.374 17.496 2.578 10.11a1.582 1.582 0 00-1.072-.39 1.576 1.576 0 00-1.057.425A1.42 1.42 0 000 11.146c-.007.377.14.74.411 1.016l8.88 8.412c.142.135.31.243.497.316a1.596 1.596 0 001.67-.316L30.556 2.482c.284-.274.444-.642.444-1.026S30.84.703 30.556.43z" fill="#3DC644"/></svg><svg viewBox="0 0 22 16" id="tick-checkbox" xmlns="http://www.w3.org/2000/svg"><path d="M21.7.284a1.024 1.024 0 00-1.42 0L6.704 13.603 1.735 8.729a1.015 1.015 0 00-.72-.294 1.031 1.031 0 00-.72.294.985.985 0 000 1.403l5.688 5.58a1.016 1.016 0 00.72.288c.266-.001.521-.105.71-.289L21.7 1.697A.995.995 0 0022 .99a.978.978 0 00-.3-.707z" fill="#D22856"/></svg><svg viewBox="0 0 298 345" id="timer" xmlns="http://www.w3.org/2000/svg"><path d="M264.586 102.035l5.35-5.359c7.72-7.718 9.13-18.935 3.13-24.924-6-5.988-17.22-4.599-24.93 3.12l-5.39 5.388a148.207 148.207 0 00-74.73-31.972V38.7h7.66c10.91 0 19.84-8.708 19.84-19.345 0-10.637-8.93-19.355-19.84-19.355h-53.32c-10.91 0-19.84 8.708-19.84 19.355 0 10.648 8.93 19.345 19.84 19.345h7.66v9.588a149.014 149.014 0 00-86.459 42.5 148.931 148.931 0 00-22.943 180.848 148.988 148.988 0 0073.11 62.734 149.035 149.035 0 0096.22 4.896 149.01 149.01 0 0079.102-54.989 148.935 148.935 0 00-4.46-182.242zm-115.57 204.149c-21.79 0-43.09-6.46-61.208-18.563a110.151 110.151 0 01-40.576-49.432 110.118 110.118 0 0123.886-120.034 110.18 110.18 0 0156.411-30.141 110.198 110.198 0 0163.655 6.272 110.162 110.162 0 0149.44 40.571 110.117 110.117 0 01-13.709 139.07 110.183 110.183 0 01-77.899 32.257z" fill="#DEDEDE"/><circle cx="149" cy="196" r="117" stroke="#D22856" stroke-width="18" fill="none"/><path d="M145.133 239H85.25v-12.598l21.504-21.738c6.367-6.523 10.527-11.035 12.48-13.535 1.954-2.539 3.36-4.883 4.219-7.031a17.836 17.836 0 001.289-6.68c0-3.438-.957-5.996-2.871-7.676-1.875-1.68-4.394-2.519-7.559-2.519-3.32 0-6.542.761-9.667 2.285-3.125 1.523-6.387 3.691-9.786 6.504l-9.843-11.66c4.218-3.594 7.715-6.133 10.488-7.618 2.773-1.484 5.801-2.617 9.082-3.398 3.281-.82 6.953-1.231 11.016-1.231 5.351 0 10.078.977 14.179 2.93 4.102 1.953 7.285 4.688 9.551 8.203 2.266 3.516 3.398 7.539 3.398 12.071 0 3.945-.703 7.656-2.109 11.132-1.367 3.438-3.516 6.973-6.445 10.606-2.891 3.633-8.008 8.808-15.352 15.527l-11.015 10.371v.821h37.324V239zm70.488-17.754h-10.312V239h-17.696v-17.754h-36.562v-12.598l37.558-55.312h16.7v53.848h10.312v14.062zm-28.008-14.062v-14.532c0-2.422.098-5.937.293-10.547.196-4.609.352-7.285.469-8.027h-.469a65.256 65.256 0 01-5.215 9.375l-15.703 23.731h20.625z" fill="#D22856"/></svg><svg viewBox="0 0 238 276" id="timer-tablet" xmlns="http://www.w3.org/2000/svg"><path d="M211.314 81.628l4.273-4.287c6.165-6.175 7.291-15.148 2.499-19.94-4.792-4.79-13.752-3.678-19.91 2.496l-4.305 4.311a118.265 118.265 0 00-59.684-25.578v-7.67h6.118c8.714 0 15.846-6.966 15.846-15.476 0-8.51-7.132-15.484-15.846-15.484H97.721c-8.714 0-15.846 6.966-15.846 15.484S89.008 30.96 97.722 30.96h6.118v7.67a118.935 118.935 0 00-69.052 34A119.238 119.238 0 00.946 141.836a119.313 119.313 0 0015.518 75.474 119.047 119.047 0 0058.389 50.187 118.839 118.839 0 0076.847 3.916 118.988 118.988 0 0063.175-43.991 119.28 119.28 0 0023.089-73.506 119.27 119.27 0 00-26.65-72.287zm-92.301 163.319a87.901 87.901 0 01-48.884-14.85 88.092 88.092 0 01-32.407-39.546 88.23 88.23 0 01-5.006-50.911A88.153 88.153 0 0156.8 94.524a87.95 87.95 0 0145.053-24.113 87.87 87.87 0 0150.838 5.017 88.012 88.012 0 0139.486 32.457 88.197 88.197 0 0114.825 48.956 88.177 88.177 0 01-25.774 62.301 87.923 87.923 0 01-62.214 25.805z" fill="#DEDEDE"/><circle cx="119" cy="157" r="93" stroke="#D22856" stroke-width="16" fill="none"/><path d="M115.906 191H68v-10.078l17.203-17.391c5.094-5.219 8.422-8.828 9.984-10.828 1.563-2.031 2.688-3.906 3.376-5.625a14.262 14.262 0 001.03-5.344c0-2.75-.765-4.796-2.296-6.14-1.5-1.344-3.516-2.016-6.047-2.016-2.656 0-5.234.61-7.734 1.828-2.5 1.219-5.11 2.953-7.829 5.203l-7.874-9.328c3.374-2.875 6.171-4.906 8.39-6.093 2.219-1.188 4.64-2.094 7.266-2.719 2.625-.657 5.562-.985 8.812-.985 4.281 0 8.063.782 11.344 2.344 3.281 1.563 5.828 3.75 7.641 6.563 1.812 2.812 2.718 6.031 2.718 9.656 0 3.156-.562 6.125-1.687 8.906-1.094 2.75-2.813 5.578-5.156 8.485-2.313 2.906-6.407 7.046-12.282 12.421l-8.812 8.297v.656h29.859V191zm56.391-14.203h-8.25V191h-14.156v-14.203h-29.25v-10.078l30.047-44.25h13.359v43.078h8.25v11.25zm-22.406-11.25v-11.625c0-1.938.078-4.75.234-8.438.156-3.687.281-5.828.375-6.422h-.375a52.198 52.198 0 01-4.172 7.5l-12.562 18.985h16.5z" fill="#D22856"/></svg><svg viewBox="0 0 12 12" fill="none" id="toggle" xmlns="http://www.w3.org/2000/svg"><circle cx="6" cy="6" r="3" fill="#fff"/></svg><svg viewBox="0 0 12 12" id="toggle-current" xmlns="http://www.w3.org/2000/svg"><circle cx="6" cy="6" r="4.5" fill="#fff" stroke="#283645" stroke-width="3"/></svg><svg fill="none" viewBox="0 0 6 6" id="toggle1" xmlns="http://www.w3.org/2000/svg"><circle opacity=".3" cx="3" cy="3" r="3" fill="#283645"/></svg><svg viewBox="0 0 18 14" id="twitter" xmlns="http://www.w3.org/2000/svg"><path d="M11.564.169A3.675 3.675 0 0113.672.14c.688.196 1.291.59 1.723 1.122.71-.21 1.41-.447 2.131-.656a2.03 2.03 0 01-.253.917c-.157.284-.38.533-.653.729.253.026.508-.002.747-.081.24-.08.456-.208.633-.376-.099.414-.3.801-.588 1.131-.287.33-.653.594-1.07.772-.247 6.27-3.367 10.467-10.689 10.296H5.15c-.443 0-4.418-.428-5.149-1.75 1.752.245 3.539-.147 4.984-1.095-1.03-.286-2.852-.447-3.161-2.74.388.133.81.163 1.215.085C1.76 7.705.34 7.039.422 4.993a2.17 2.17 0 001.421.438C1.102 5.203-.247 2.31.896.825c1.926 1.723 3.964 3.35 7.59 3.512C8.711 2.205 9.69.777 11.563.169z" fill="#D22856"/></svg><svg viewBox="0 0 15 13" id="youtube" xmlns="http://www.w3.org/2000/svg"><path d="M1.834 12.809a1.257 1.257 0 01-1.285.03 1.097 1.097 0 01-.443-.457.97.97 0 01-.092-.603V1.221A.97.97 0 01.106.618 1.09 1.09 0 01.549.16a1.256 1.256 0 011.285.031l12.4 5.502c1.022.445 1.022 1.169 0 1.614l-12.4 5.502z" fill="#D22856"/></svg></svg>