<svg viewBox="0 0 56 56" xmlns="http://www.w3.org/2000/svg"><path d="M42.886 20.062H16.114v19.134c-.022 1.895 1.51 3.483 3.382 3.626v7.453C19.588 51.807 20.924 53 22.444 53s2.856-1.193 2.948-2.725v-7.433h8.236v7.433C33.72 51.807 35.056 53 36.576 53s2.856-1.193 2.949-2.725v-7.453c1.873-.143 3.409-1.73 3.392-3.627 0-6.308.503-12.85-.03-19.133Zm-31.933 1.683c1.579 0 2.943 1.29 2.943 2.885v12.402c.006 1.6-1.36 2.895-2.943 2.895C9.37 39.927 8 38.633 8 37.032V24.63c0-1.6 1.371-2.89 2.953-2.885Zm37.104 0c1.578 0 2.943 1.29 2.943 2.885v12.402c.006 1.6-1.36 2.895-2.943 2.895-1.584 0-2.953-1.294-2.953-2.895V24.63c0-1.6 1.37-2.89 2.953-2.885Zm-31.882-3.687h26.568a10.403 10.403 0 0 0-3.26-7.293l2.566-4.267c.245-.34-.317-.708-.542-.351l-2.422 4.157c-5.743-4.384-13.45-4.346-19.2 0l-2.382-4.117c-.183-.366-.74-.094-.541.27l2.493 4.238a10.443 10.443 0 0 0-3.28 7.363Zm17.699-5.21c0-.83.71-1.502 1.532-1.502.822 0 1.533.672 1.533 1.503 0 .83-.71 1.502-1.533 1.502-.822 0-1.532-.671-1.532-1.502Zm-11.384 0c0-.83.71-1.502 1.533-1.502.822 0 1.533.672 1.533 1.503 0 .83-.711 1.502-1.533 1.502s-1.533-.671-1.533-1.502Z" fill="#A4C639"/></svg>
