<svg viewBox="0 0 238 276" xmlns="http://www.w3.org/2000/svg"><path d="m211.314 81.628 4.273-4.287c6.165-6.175 7.291-15.148 2.499-19.94-4.792-4.79-13.752-3.678-19.91 2.496l-4.305 4.311a118.265 118.265 0 0 0-59.684-25.578v-7.67h6.118c8.714 0 15.846-6.966 15.846-15.476 0-8.51-7.132-15.484-15.846-15.484H97.721c-8.714 0-15.846 6.966-15.846 15.484S89.008 30.96 97.722 30.96h6.118v7.67a118.935 118.935 0 0 0-69.052 34A119.238 119.238 0 0 0 .946 141.836a119.313 119.313 0 0 0 15.518 75.474 119.047 119.047 0 0 0 58.389 50.187 118.839 118.839 0 0 0 76.847 3.916 118.988 118.988 0 0 0 63.175-43.991 119.28 119.28 0 0 0 23.089-73.506 119.27 119.27 0 0 0-26.65-72.287Zm-92.301 163.319a87.901 87.901 0 0 1-48.884-14.85 88.092 88.092 0 0 1-32.407-39.546 88.23 88.23 0 0 1-5.006-50.911A88.153 88.153 0 0 1 56.8 94.524a87.95 87.95 0 0 1 45.053-24.113 87.87 87.87 0 0 1 50.838 5.017 88.012 88.012 0 0 1 39.486 32.457 88.197 88.197 0 0 1 14.825 48.956 88.177 88.177 0 0 1-25.774 62.301 87.923 87.923 0 0 1-62.214 25.805Z" fill="#DEDEDE"/><path fill-rule="evenodd" d="M220 157c0 55.781-45.219 101-101 101-55.78 0-101-45.219-101-101S63.22 56 119 56c55.781 0 101 45.219 101 101Zm-16 0c0 46.944-38.056 85-85 85s-85-38.056-85-85 38.056-85 85-85 85 38.056 85 85ZM68 191h47.906v-12.188h-29.86v-.656l8.813-8.297c5.875-5.375 9.969-9.515 12.282-12.421 2.343-2.907 4.062-5.735 5.156-8.485 1.125-2.781 1.687-5.75 1.687-8.906 0-3.625-.906-6.844-2.718-9.656-1.813-2.813-4.36-5-7.641-6.563-3.281-1.562-7.063-2.344-11.344-2.344-3.25 0-6.187.328-8.812.985-2.625.625-5.047 1.531-7.266 2.719-2.219 1.187-5.016 3.218-8.39 6.093l7.874 9.328c2.72-2.25 5.329-3.984 7.829-5.203 2.5-1.218 5.078-1.828 7.734-1.828 2.531 0 4.547.672 6.047 2.016 1.531 1.344 2.297 3.39 2.297 6.14 0 1.844-.344 3.625-1.031 5.344-.688 1.719-1.813 3.594-3.376 5.625-1.562 2-4.89 5.609-9.984 10.828L68 180.922V191Zm96.047-14.203h8.25v-11.25h-8.25v-43.078h-13.359l-30.047 44.25v10.078h29.25V191h14.156v-14.203Zm-14.156-22.875v11.625h-16.5l12.562-18.985a52.198 52.198 0 0 0 4.172-7.5h.375c-.094.594-.219 2.735-.375 6.422-.156 3.688-.234 6.5-.234 8.438Z" fill="#D22856"/></svg>
