<svg viewBox="0 0 20 20" xmlns="http://www.w3.org/2000/svg"><path d="M12.564 3.169a3.675 3.675 0 0 1 2.108-.028c.688.196 1.291.59 1.723 1.122.71-.21 1.41-.447 2.131-.656a2.03 2.03 0 0 1-.253.917c-.157.284-.38.533-.653.729.253.026.508-.002.747-.081.24-.08.456-.208.633-.376-.099.414-.3.8-.588 1.131-.287.33-.653.594-1.07.772-.247 6.27-3.367 10.467-10.689 10.296H6.15c-.443 0-4.418-.428-5.149-1.75 1.752.245 3.539-.147 4.984-1.095-1.03-.286-2.852-.447-3.161-2.74.388.133.81.163 1.215.085-1.277-.79-2.698-1.456-2.616-3.502a2.17 2.17 0 0 0 1.421.438c-.741-.228-2.09-3.121-.947-4.606 1.926 1.723 3.964 3.35 7.59 3.512.226-2.132 1.204-3.56 3.078-4.168Z" fill="#D22856"/></svg>
